<svg xmlns="http://www.w3.org/2000/svg" width="400" height="118" viewBox="0 0 400 118" version="1.1"><path d="M 19.667 15.667 C 18.944 16.390, 18.720 36, 19.435 36 C 19.674 36, 21.024 35.561, 22.435 35.025 C 24.827 34.115, 25 33.609, 25 27.525 L 25 21 67.513 21 L 110.026 21 109.763 55.250 L 109.500 89.500 76.750 89.764 L 44 90.027 44 93.014 L 44 96 78.800 96 C 104.533 96, 113.913 95.687, 114.800 94.800 C 116.523 93.077, 116.523 17.923, 114.800 16.200 C 113.901 15.301, 101.904 15, 66.967 15 C 41.318 15, 20.033 15.300, 19.667 15.667 M 46.434 28.311 C 46.157 29.032, 46.059 34.770, 46.215 41.061 L 46.500 52.500 74.500 52.500 L 102.500 52.500 102.780 39.750 L 103.060 27 74.998 27 C 52.774 27, 46.833 27.273, 46.434 28.311 M 18.400 42.400 C 15.569 45.231, 15 46.533, 15 50.177 C 15 55.176, 16.849 58.354, 21.011 60.506 C 32.890 66.648, 44.017 50.366, 33.828 41.750 C 28.936 37.614, 22.933 37.867, 18.400 42.400 M 141.995 45.624 C 132.926 53.816, 133.092 70.427, 142.299 76.040 C 146.504 78.605, 149.946 78.511, 154.088 75.720 C 158.182 72.961, 159.966 69.694, 159.985 64.917 C 160.004 60.426, 159.084 59.435, 157.283 62.006 C 155.389 64.711, 149.471 64.749, 148.035 62.066 C 146.703 59.577, 146.703 53.423, 148.035 50.934 C 149.099 48.946, 153 48.212, 153 50 C 153 50.550, 152.325 51, 151.500 51 C 149.009 51, 149.686 55.748, 152.433 57.548 C 157.328 60.756, 162.115 54.908, 159.953 48.359 C 158.500 43.956, 155.526 42, 150.280 42 C 146.772 42, 145.287 42.649, 141.995 45.624 M 376.312 43.630 C 376.066 44.270, 376.008 45.628, 376.183 46.647 C 376.420 48.031, 375.790 48.581, 373.692 48.822 C 371.193 49.109, 370.918 49.494, 371.192 52.322 C 371.470 55.187, 371.786 55.466, 374.406 55.158 L 377.312 54.816 376.630 66.038 L 375.949 77.260 379.099 76.630 C 380.832 76.284, 383.089 76, 384.115 76 C 385.860 76, 385.939 75.310, 385.329 65.351 L 384.678 54.702 387.339 55.370 C 389.843 55.999, 390 55.830, 390 52.519 C 390 49.403, 389.704 49, 387.421 49 C 385.096 49, 384.904 48.714, 385.477 46.105 C 386.100 43.269, 386.018 43.203, 381.435 42.838 C 378.487 42.604, 376.593 42.897, 376.312 43.630 M 201.612 48.721 C 201.203 49.130, 198.235 49.334, 195.015 49.174 L 189.161 48.884 188.808 62.192 C 188.614 69.511, 188.690 75.802, 188.977 76.170 C 189.265 76.539, 191.568 76.601, 194.095 76.308 L 198.690 75.775 197.889 71.637 C 196.522 64.584, 196.857 59.398, 198.838 56.952 C 199.879 55.666, 201.180 54.993, 201.838 55.400 C 203.669 56.531, 203.196 58, 201 58 C 198.349 58, 198.304 62.060, 200.928 64.435 C 206.775 69.727, 214.118 56.517, 208.386 51.019 C 206.142 48.865, 202.652 47.682, 201.612 48.721 M 270.520 48.813 C 270.193 49.141, 267.042 49.302, 263.518 49.172 L 257.112 48.935 256.806 62.218 C 256.638 69.523, 256.725 75.802, 257 76.170 C 257.275 76.539, 259.568 76.601, 262.095 76.308 L 266.690 75.775 265.889 71.637 C 264.522 64.584, 264.857 59.398, 266.838 56.952 C 267.879 55.666, 269.180 54.993, 269.838 55.400 C 271.669 56.531, 271.196 58, 269 58 C 266.349 58, 266.304 62.060, 268.928 64.435 C 274.738 69.692, 281.965 57.039, 276.563 51.069 C 274.743 49.058, 271.490 47.844, 270.520 48.813 M 285.420 49.154 C 278.730 52.369, 277.263 68.393, 283.091 74.597 C 285.855 77.539, 289.289 77.680, 291.826 74.956 C 293.721 72.923, 293.733 72.935, 294.255 77.571 C 294.970 83.910, 297.728 87.417, 302.307 87.808 C 304.292 87.977, 306.834 87.624, 307.958 87.023 C 311.480 85.138, 310.169 78, 306.300 78 C 305.585 78, 305 78.712, 305 79.583 C 305 80.454, 304.438 80.974, 303.750 80.739 C 302.823 80.421, 302.500 76.335, 302.500 64.906 L 302.500 49.500 297 49.420 C 293.975 49.376, 290.600 49.073, 289.500 48.747 C 288.400 48.421, 286.564 48.605, 285.420 49.154 M 218.299 50.960 C 210.368 55.795, 208.808 70.558, 215.659 75.946 C 222.036 80.963, 232 76.435, 232 68.520 C 232 64.965, 231.952 64.920, 229.777 66.443 C 227.124 68.302, 223.856 68.456, 222.200 66.800 C 220.306 64.906, 220.752 64.269, 224.457 63.574 C 230.805 62.383, 234.329 54.418, 230.171 50.655 C 227.712 48.430, 222.216 48.571, 218.299 50.960 M 240.500 50.988 C 236.227 53.800, 234 58.527, 234 64.784 C 234 70.588, 235.936 75.360, 238.945 76.970 C 241.459 78.316, 247.593 78.288, 250.150 76.920 C 252.709 75.550, 255.073 69.994, 254.320 67.118 C 253.787 65.076, 253.619 65.035, 251.961 66.535 C 249.735 68.550, 244.633 68.113, 244.209 65.871 C 244.005 64.794, 244.849 64.006, 246.700 63.547 C 253.066 61.967, 256.361 54.504, 252.429 50.571 C 250.257 48.400, 244.105 48.615, 240.500 50.988 M 317.201 57.588 C 317.470 65.540, 317.312 66.473, 315.643 66.811 C 313.931 67.158, 313.814 66.543, 314.143 58.951 L 314.500 50.715 310 50.607 L 305.500 50.500 305.835 60.500 C 306.224 72.107, 307.796 75.936, 312.758 77.359 C 316.863 78.537, 321.634 76.633, 323.408 73.109 C 324.131 71.674, 325.012 65.888, 325.366 60.250 C 326.004 50.093, 325.990 50, 323.755 49.986 C 322.515 49.979, 320.465 49.696, 319.201 49.357 C 316.913 48.744, 316.903 48.786, 317.201 57.588 M 334.832 50.709 C 330.742 53.246, 328 58.956, 328 64.936 C 328 73.764, 331.405 78, 338.500 78 C 340.497 78, 342.997 77.537, 344.055 76.970 C 346.859 75.470, 349.277 70.239, 348.534 67.280 C 347.938 64.905, 347.809 64.863, 346.041 66.463 C 343.772 68.516, 338.642 68.161, 338.218 65.920 C 338.013 64.835, 339.178 63.964, 341.943 63.135 C 346.515 61.765, 348 59.673, 348 54.601 C 348 52.134, 347.417 50.759, 346.066 50.035 C 343.206 48.505, 337.869 48.825, 334.832 50.709 M 353.763 50.565 C 347.931 53.729, 349.048 60.934, 356 65 C 360.628 67.707, 362.531 71, 359.466 71 C 358.369 71, 357.990 70.469, 358.373 69.470 C 359.238 67.215, 354.895 65.451, 352.126 66.932 C 349.409 68.387, 349.297 73.054, 351.922 75.430 C 356.302 79.393, 366.326 77.997, 368.970 73.055 C 370.180 70.795, 370.300 66.021, 369.192 64.276 C 368.764 63.604, 366.448 62.013, 364.045 60.742 C 358.780 57.958, 356.815 55.370, 358.952 54.038 C 360.861 52.848, 362.382 53.835, 361.072 55.413 C 359.028 57.877, 363.406 59.933, 367.418 58.393 C 369.831 57.467, 369.417 52.406, 366.777 50.557 C 363.992 48.606, 357.366 48.610, 353.763 50.565 M 166.724 51.250 C 164.224 53.134, 162 59.373, 162 64.500 C 162 75.515, 168.688 81.403, 174.545 75.545 C 176.858 73.233, 177 73.207, 177 75.103 C 177 76.843, 177.557 77.073, 181.123 76.807 L 185.246 76.500 185.178 63.500 L 185.110 50.500 181.485 50.185 C 179.492 50.012, 177.257 50.372, 176.519 50.984 C 175.594 51.752, 174.977 51.772, 174.530 51.049 C 173.637 49.604, 168.740 49.730, 166.724 51.250 M 222.571 56.571 C 220.822 58.321, 220.507 60, 221.929 60 C 223.419 60, 226.072 56.925, 225.450 55.919 C 224.684 54.680, 224.398 54.745, 222.571 56.571 M 244.611 56.877 C 242.483 59.229, 243.978 60.473, 246.603 58.535 C 247.959 57.534, 248.194 56.824, 247.426 56.044 C 246.653 55.258, 245.865 55.492, 244.611 56.877 M 339.063 56.424 C 337.131 58.752, 338.177 60.325, 340.512 58.602 C 341.954 57.537, 342.200 56.830, 341.408 56.025 C 340.609 55.214, 339.979 55.321, 339.063 56.424 M 72.369 61.500 L 68.717 67 38.894 67 C 10.185 67, 9.031 67.074, 8.010 68.982 C 7.354 70.206, 7.054 76.989, 7.225 86.732 L 7.500 102.500 23.500 102.500 L 39.500 102.500 39.780 89.750 L 40.060 77 57.596 77 C 67.771 77, 75.943 76.566, 77.066 75.965 C 79.937 74.428, 79.633 69.461, 76.543 67.436 L 74.086 65.827 76.638 61.971 C 79.015 58.379, 79.140 56, 76.951 56 C 76.439 56, 74.377 58.475, 72.369 61.500 M 171.882 58.750 C 170.532 62.222, 171.896 68.500, 174 68.500 C 175.871 68.500, 177.532 62.256, 176.624 58.637 C 175.761 55.201, 173.238 55.262, 171.882 58.750 M 289.626 57.533 C 288.574 60.273, 288.926 64.516, 290.368 66.489 C 291.689 68.295, 291.778 68.283, 292.926 66.138 C 294.602 63.006, 293.924 56.597, 291.876 56.209 C 290.983 56.040, 289.970 56.636, 289.626 57.533" stroke="none" fill="#5c0f91" fill-rule="evenodd"/><path d="M -0 59.002 L -0 118.005 200.250 117.752 L 400.500 117.500 400.758 58.750 L 401.016 0 200.508 0 L 0 0 -0 59.002 M 0.469 59.500 C 0.469 91.950, 0.595 105.080, 0.750 88.678 C 0.904 72.277, 0.904 45.727, 0.749 29.678 C 0.595 13.630, 0.469 27.050, 0.469 59.500 M 19.667 15.667 C 18.944 16.390, 18.720 36, 19.435 36 C 19.674 36, 21.024 35.561, 22.435 35.025 C 24.827 34.115, 25 33.609, 25 27.525 L 25 21 67.513 21 L 110.026 21 109.763 55.250 L 109.500 89.500 76.750 89.764 L 44 90.027 44 93.014 L 44 96 78.800 96 C 104.533 96, 113.913 95.687, 114.800 94.800 C 116.523 93.077, 116.523 17.923, 114.800 16.200 C 113.901 15.301, 101.904 15, 66.967 15 C 41.318 15, 20.033 15.300, 19.667 15.667 M 46.434 28.311 C 46.157 29.032, 46.059 34.770, 46.215 41.061 L 46.500 52.500 74.500 52.500 L 102.500 52.500 102.780 39.750 L 103.060 27 74.998 27 C 52.774 27, 46.833 27.273, 46.434 28.311 M 18.400 42.400 C 15.569 45.231, 15 46.533, 15 50.177 C 15 55.176, 16.849 58.354, 21.011 60.506 C 32.890 66.648, 44.017 50.366, 33.828 41.750 C 28.936 37.614, 22.933 37.867, 18.400 42.400 M 141.995 45.624 C 132.926 53.816, 133.092 70.427, 142.299 76.040 C 146.504 78.605, 149.946 78.511, 154.088 75.720 C 158.182 72.961, 159.966 69.694, 159.985 64.917 C 160.004 60.426, 159.084 59.435, 157.283 62.006 C 155.389 64.711, 149.471 64.749, 148.035 62.066 C 146.703 59.577, 146.703 53.423, 148.035 50.934 C 149.099 48.946, 153 48.212, 153 50 C 153 50.550, 152.325 51, 151.500 51 C 149.009 51, 149.686 55.748, 152.433 57.548 C 157.328 60.756, 162.115 54.908, 159.953 48.359 C 158.500 43.956, 155.526 42, 150.280 42 C 146.772 42, 145.287 42.649, 141.995 45.624 M 376.312 43.630 C 376.066 44.270, 376.008 45.628, 376.183 46.647 C 376.420 48.031, 375.790 48.581, 373.692 48.822 C 371.193 49.109, 370.918 49.494, 371.192 52.322 C 371.470 55.187, 371.786 55.466, 374.406 55.158 L 377.312 54.816 376.630 66.038 L 375.949 77.260 379.099 76.630 C 380.832 76.284, 383.089 76, 384.115 76 C 385.860 76, 385.939 75.310, 385.329 65.351 L 384.678 54.702 387.339 55.370 C 389.843 55.999, 390 55.830, 390 52.519 C 390 49.403, 389.704 49, 387.421 49 C 385.096 49, 384.904 48.714, 385.477 46.105 C 386.100 43.269, 386.018 43.203, 381.435 42.838 C 378.487 42.604, 376.593 42.897, 376.312 43.630 M 201.612 48.721 C 201.203 49.130, 198.235 49.334, 195.015 49.174 L 189.161 48.884 188.808 62.192 C 188.614 69.511, 188.690 75.802, 188.977 76.170 C 189.265 76.539, 191.568 76.601, 194.095 76.308 L 198.690 75.775 197.889 71.637 C 196.522 64.584, 196.857 59.398, 198.838 56.952 C 199.879 55.666, 201.180 54.993, 201.838 55.400 C 203.669 56.531, 203.196 58, 201 58 C 198.349 58, 198.304 62.060, 200.928 64.435 C 206.775 69.727, 214.118 56.517, 208.386 51.019 C 206.142 48.865, 202.652 47.682, 201.612 48.721 M 270.520 48.813 C 270.193 49.141, 267.042 49.302, 263.518 49.172 L 257.112 48.935 256.806 62.218 C 256.638 69.523, 256.725 75.802, 257 76.170 C 257.275 76.539, 259.568 76.601, 262.095 76.308 L 266.690 75.775 265.889 71.637 C 264.522 64.584, 264.857 59.398, 266.838 56.952 C 267.879 55.666, 269.180 54.993, 269.838 55.400 C 271.669 56.531, 271.196 58, 269 58 C 266.349 58, 266.304 62.060, 268.928 64.435 C 274.738 69.692, 281.965 57.039, 276.563 51.069 C 274.743 49.058, 271.490 47.844, 270.520 48.813 M 285.420 49.154 C 278.730 52.369, 277.263 68.393, 283.091 74.597 C 285.855 77.539, 289.289 77.680, 291.826 74.956 C 293.721 72.923, 293.733 72.935, 294.255 77.571 C 294.970 83.910, 297.728 87.417, 302.307 87.808 C 304.292 87.977, 306.834 87.624, 307.958 87.023 C 311.480 85.138, 310.169 78, 306.300 78 C 305.585 78, 305 78.712, 305 79.583 C 305 80.454, 304.438 80.974, 303.750 80.739 C 302.823 80.421, 302.500 76.335, 302.500 64.906 L 302.500 49.500 297 49.420 C 293.975 49.376, 290.600 49.073, 289.500 48.747 C 288.400 48.421, 286.564 48.605, 285.420 49.154 M 218.299 50.960 C 210.368 55.795, 208.808 70.558, 215.659 75.946 C 222.036 80.963, 232 76.435, 232 68.520 C 232 64.965, 231.952 64.920, 229.777 66.443 C 227.124 68.302, 223.856 68.456, 222.200 66.800 C 220.306 64.906, 220.752 64.269, 224.457 63.574 C 230.805 62.383, 234.329 54.418, 230.171 50.655 C 227.712 48.430, 222.216 48.571, 218.299 50.960 M 240.500 50.988 C 236.227 53.800, 234 58.527, 234 64.784 C 234 70.588, 235.936 75.360, 238.945 76.970 C 241.459 78.316, 247.593 78.288, 250.150 76.920 C 252.709 75.550, 255.073 69.994, 254.320 67.118 C 253.787 65.076, 253.619 65.035, 251.961 66.535 C 249.735 68.550, 244.633 68.113, 244.209 65.871 C 244.005 64.794, 244.849 64.006, 246.700 63.547 C 253.066 61.967, 256.361 54.504, 252.429 50.571 C 250.257 48.400, 244.105 48.615, 240.500 50.988 M 317.201 57.588 C 317.470 65.540, 317.312 66.473, 315.643 66.811 C 313.931 67.158, 313.814 66.543, 314.143 58.951 L 314.500 50.715 310 50.607 L 305.500 50.500 305.835 60.500 C 306.224 72.107, 307.796 75.936, 312.758 77.359 C 316.863 78.537, 321.634 76.633, 323.408 73.109 C 324.131 71.674, 325.012 65.888, 325.366 60.250 C 326.004 50.093, 325.990 50, 323.755 49.986 C 322.515 49.979, 320.465 49.696, 319.201 49.357 C 316.913 48.744, 316.903 48.786, 317.201 57.588 M 334.832 50.709 C 330.742 53.246, 328 58.956, 328 64.936 C 328 73.764, 331.405 78, 338.500 78 C 340.497 78, 342.997 77.537, 344.055 76.970 C 346.859 75.470, 349.277 70.239, 348.534 67.280 C 347.938 64.905, 347.809 64.863, 346.041 66.463 C 343.772 68.516, 338.642 68.161, 338.218 65.920 C 338.013 64.835, 339.178 63.964, 341.943 63.135 C 346.515 61.765, 348 59.673, 348 54.601 C 348 52.134, 347.417 50.759, 346.066 50.035 C 343.206 48.505, 337.869 48.825, 334.832 50.709 M 353.763 50.565 C 347.931 53.729, 349.048 60.934, 356 65 C 360.628 67.707, 362.531 71, 359.466 71 C 358.369 71, 357.990 70.469, 358.373 69.470 C 359.238 67.215, 354.895 65.451, 352.126 66.932 C 349.409 68.387, 349.297 73.054, 351.922 75.430 C 356.302 79.393, 366.326 77.997, 368.970 73.055 C 370.180 70.795, 370.300 66.021, 369.192 64.276 C 368.764 63.604, 366.448 62.013, 364.045 60.742 C 358.780 57.958, 356.815 55.370, 358.952 54.038 C 360.861 52.848, 362.382 53.835, 361.072 55.413 C 359.028 57.877, 363.406 59.933, 367.418 58.393 C 369.831 57.467, 369.417 52.406, 366.777 50.557 C 363.992 48.606, 357.366 48.610, 353.763 50.565 M 166.724 51.250 C 164.224 53.134, 162 59.373, 162 64.500 C 162 75.515, 168.688 81.403, 174.545 75.545 C 176.858 73.233, 177 73.207, 177 75.103 C 177 76.843, 177.557 77.073, 181.123 76.807 L 185.246 76.500 185.178 63.500 L 185.110 50.500 181.485 50.185 C 179.492 50.012, 177.257 50.372, 176.519 50.984 C 175.594 51.752, 174.977 51.772, 174.530 51.049 C 173.637 49.604, 168.740 49.730, 166.724 51.250 M 222.571 56.571 C 220.822 58.321, 220.507 60, 221.929 60 C 223.419 60, 226.072 56.925, 225.450 55.919 C 224.684 54.680, 224.398 54.745, 222.571 56.571 M 244.611 56.877 C 242.483 59.229, 243.978 60.473, 246.603 58.535 C 247.959 57.534, 248.194 56.824, 247.426 56.044 C 246.653 55.258, 245.865 55.492, 244.611 56.877 M 339.063 56.424 C 337.131 58.752, 338.177 60.325, 340.512 58.602 C 341.954 57.537, 342.200 56.830, 341.408 56.025 C 340.609 55.214, 339.979 55.321, 339.063 56.424 M 72.369 61.500 L 68.717 67 38.894 67 C 10.185 67, 9.031 67.074, 8.010 68.982 C 7.354 70.206, 7.054 76.989, 7.225 86.732 L 7.500 102.500 23.500 102.500 L 39.500 102.500 39.780 89.750 L 40.060 77 57.596 77 C 67.771 77, 75.943 76.566, 77.066 75.965 C 79.937 74.428, 79.633 69.461, 76.543 67.436 L 74.086 65.827 76.638 61.971 C 79.015 58.379, 79.140 56, 76.951 56 C 76.439 56, 74.377 58.475, 72.369 61.500 M 171.882 58.750 C 170.532 62.222, 171.896 68.500, 174 68.500 C 175.871 68.500, 177.532 62.256, 176.624 58.637 C 175.761 55.201, 173.238 55.262, 171.882 58.750 M 289.626 57.533 C 288.574 60.273, 288.926 64.516, 290.368 66.489 C 291.689 68.295, 291.778 68.283, 292.926 66.138 C 294.602 63.006, 293.924 56.597, 291.876 56.209 C 290.983 56.040, 289.970 56.636, 289.626 57.533" stroke="none" fill="#f9f8fa" fill-rule="evenodd"/></svg>